<?xml version="1.0" encoding="UTF-8" standalone="no"?>
<svg width="41px" height="11px" viewBox="0 0 41 11" version="1.1" xmlns="http://www.w3.org/2000/svg" xmlns:xlink="http://www.w3.org/1999/xlink">
    <!-- Generator: Sketch 3.7 (28169) - http://www.bohemiancoding.com/sketch -->
    <title>squig-wide</title>
    <desc>Created with Sketch.</desc>
    <defs></defs>
    <g id="Page-1" stroke="none" stroke-width="1" fill="none" fill-rule="evenodd" stroke-linecap="round">
        <path d="M-70,3 C-64.958,3 -64.958,7 -59.915,7 C-54.873,7 -54.873,3 -49.831,3 C-44.787,3 -44.787,7 -39.744,7 C-34.701,7 -34.701,3 -29.659,3 C-24.615,3 -24.615,7 -19.571,7 C-14.527,7 -14.527,3 -9.482,3 C-4.439,3 -4.439,7 0.605,7 C5.649,7 5.649,3 10.693,3 C15.737,3 15.737,7 20.782,7 C25.827,7 25.827,3 30.872,3 C35.917,3 35.917,7 40.961,7 C46.006,7 46.006,3 51.051,3 C56.094,3 56.094,7 61.138,7 C66.182,7 66.182,3 71.225,3 C76.27,3 76.27,7 81.315,7 C86.362,7 86.362,3 91.408,3 C96.454,3 96.454,7 101.499,7 C106.547,7 106.547,3 111.596,3 C116.644,3 116.644,7 121.693,7" id="Page-1-Copy-2" stroke="#F37973" stroke-width="5"></path>
    </g>
</svg>