<?xml version="1.0" encoding="UTF-8" standalone="no"?>
<svg width="41px" height="8px" viewBox="0 0 41 8" version="1.1" xmlns="http://www.w3.org/2000/svg" xmlns:xlink="http://www.w3.org/1999/xlink">
    <!-- Generator: Sketch 3.7 (28169) - http://www.bohemiancoding.com/sketch -->
    <title>squig</title>
    <desc>Created with Sketch.</desc>
    <defs></defs>
    <g id="Page-1" stroke="none" stroke-width="1" fill="none" fill-rule="evenodd" stroke-linecap="round">
        <path d="M-70,2 C-64.958,2 -64.958,6 -59.915,6 C-54.873,6 -54.873,2 -49.831,2 C-44.787,2 -44.787,6 -39.744,6 C-34.701,6 -34.701,2 -29.659,2 C-24.615,2 -24.615,6 -19.571,6 C-14.527,6 -14.527,2 -9.482,2 C-4.439,2 -4.439,6 0.605,6 C5.649,6 5.649,2 10.693,2 C15.737,2 15.737,6 20.782,6 C25.827,6 25.827,2 30.872,2 C35.917,2 35.917,6 40.961,6 C46.006,6 46.006,2 51.051,2 C56.094,2 56.094,6 61.138,6 C66.182,6 66.182,2 71.225,2 C76.27,2 76.27,6 81.315,6 C86.362,6 86.362,2 91.408,2 C96.454,2 96.454,6 101.499,6 C106.547,6 106.547,2 111.596,2 C116.644,2 116.644,6 121.693,6" id="Page-1-Copy" stroke="#F37973" stroke-width="3"></path>
    </g>
</svg>