<?xml version="1.0" encoding="UTF-8" standalone="no"?>
<svg width="196px" height="8px" viewBox="0 0 196 9" version="1.1" xmlns="http://www.w3.org/2000/svg" xmlns:xlink="http://www.w3.org/1999/xlink">
    <!-- Generator: Sketch 3.7 (28169) - http://www.bohemiancoding.com/sketch -->
    <title>squiggle1</title>
    <desc>Created with Sketch.</desc>
    <defs></defs>
    <g id="Page-1" stroke="none" stroke-width="1" fill="none" fill-rule="evenodd" stroke-linecap="round">
        <path d="M2,2 C7.042,2 7.042,6 12.085,6 C17.127,6 17.127,2 22.169,2 C27.213,2 27.213,6 32.256,6 C37.299,6 37.299,2 42.341,2 C47.385,2 47.385,6 52.429,6 C57.473,6 57.473,2 62.518,2 C67.561,2 67.561,6 72.605,6 C77.649,6 77.649,2 82.693,2 C87.737,2 87.737,6 92.782,6 C97.827,6 97.827,2 102.872,2 C107.917,2 107.917,6 112.961,6 C118.006,6 118.006,2 123.051,2 C128.094,2 128.094,6 133.138,6 C138.182,6 138.182,2 143.225,2 C148.27,2 148.27,6 153.315,6 C158.362,6 158.362,2 163.408,2 C168.454,2 168.454,6 173.499,6 C178.547,6 178.547,2 183.596,2 C188.644,2 188.644,6 193.693,6" stroke="#F37973" stroke-width="5"></path>
    </g>
</svg>