<?xml version="1.0" encoding="UTF-8" standalone="no"?>
<svg width="41px" height="8px" viewBox="0 0 41 8" version="1.1" xmlns="http://www.w3.org/2000/svg" xmlns:xlink="http://www.w3.org/1999/xlink">
    <!-- Generator: Sketch 3.7 (28169) - http://www.bohemiancoding.com/sketch -->
    <title>squig-thin</title>
    <desc>Created with Sketch.</desc>
    <defs></defs>
    <g id="Page-1" stroke="none" stroke-width="1" fill="none" fill-rule="evenodd" stroke-linecap="round">
        <path d="M-71,2 C-65.958,2 -65.958,6 -60.915,6 C-55.873,6 -55.873,2 -50.831,2 C-45.787,2 -45.787,6 -40.744,6 C-35.701,6 -35.701,2 -30.659,2 C-25.615,2 -25.615,6 -20.571,6 C-15.527,6 -15.527,2 -10.482,2 C-5.439,2 -5.439,6 -0.395,6 C4.649,6 4.649,2 9.693,2 C14.737,2 14.737,6 19.782,6 C24.827,6 24.827,2 29.872,2 C34.917,2 34.917,6 39.961,6 C45.006,6 45.006,2 50.051,2 C55.094,2 55.094,6 60.138,6 C65.182,6 65.182,2 70.225,2 C75.27,2 75.27,6 80.315,6 C85.362,6 85.362,2 90.408,2 C95.454,2 95.454,6 100.499,6 C105.547,6 105.547,2 110.596,2 C115.644,2 115.644,6 120.693,6" id="Page-1-Copy-3" stroke="#F37973" stroke-width="2"></path>
    </g>
</svg>